HIERARCHY
ROOT Hips
{
	OFFSET 0.000000 0.000000 0.000000 
	CHANNELS 6 Xposition Yposition Zposition Zrotation Yrotation Xrotation
	JOINT LeftUpLeg
	{
		OFFSET 1.363060 -1.794630 0.839290 
		CHANNELS 3 Zrotation Yrotation Xrotation
		JOINT LeftLeg
		{
			OFFSET 2.448110 -6.726130 0.000000 
			CHANNELS 3 Zrotation Yrotation Xrotation
			JOINT LeftFoot
			{
				OFFSET 2.562200 -7.039590 0.000000 
				CHANNELS 3 Zrotation Yrotation Xrotation
				JOINT LeftToeBase
				{
					OFFSET 0.157640 -0.433110 2.322550 
					CHANNELS 3 Zrotation Yrotation Xrotation
					End Site
					{
						OFFSET 0.000000 0.000000 0.000000 
					}
				}
			}
		}
	}
	JOINT RightUpLeg
	{
		OFFSET -1.305520 -1.794630 0.839290 
		CHANNELS 3 Zrotation Yrotation Xrotation
		JOINT RightLeg
		{
			OFFSET -2.542530 -6.985550 0.000000 
			CHANNELS 3 Zrotation Yrotation Xrotation
			JOINT RightFoot
			{
				OFFSET -2.568260 -7.056230 0.000000 
				CHANNELS 3 Zrotation Yrotation Xrotation
				JOINT RightToeBase
				{
					OFFSET -0.164730 -0.452590 2.363150 
					CHANNELS 3 Zrotation Yrotation Xrotation
					End Site
					{
						OFFSET 0.000000 0.000000 0.000000 
					}
				}
			}
		}
	}
	JOINT Spine
	{
		OFFSET 0.028270 2.035590 -0.193380 
		CHANNELS 3 Zrotation Yrotation Xrotation
		JOINT Spine1
		{
			OFFSET 0.056720 2.048850 -0.042750 
			CHANNELS 3 Zrotation Yrotation Xrotation
			JOINT Neck1
			{
				OFFSET -0.054170 1.746240 0.172020 
				CHANNELS 3 Zrotation Yrotation Xrotation
				JOINT Head
				{
					OFFSET 0.104070 1.761360 -0.123970 
					CHANNELS 3 Zrotation Yrotation Xrotation
					End Site
					{
						OFFSET 0.000000 0.000000 0.000000 
					}
				}
			}
			JOINT LeftArm
			{
				OFFSET 3.362410 1.200890 -0.311210 
				CHANNELS 3 Zrotation Yrotation Xrotation
				JOINT LeftForeArm
				{
					OFFSET 4.983000 -0.000000 -0.000000 
					CHANNELS 3 Zrotation Yrotation Xrotation
					JOINT LeftHand
					{
						OFFSET 3.483560 -0.000000 -0.000000 
						CHANNELS 3 Zrotation Yrotation Xrotation
						JOINT LeftHandIndex1
						{
							OFFSET 0.715260 -0.000000 -0.000000 
							CHANNELS 3 Zrotation Yrotation Xrotation
							End Site
							{
								OFFSET 0.000000 0.000000 0.000000 
							}
						}
					}
				}
			}
			JOINT RightArm
			{
				OFFSET -3.136600 1.374050 -0.404650 
				CHANNELS 3 Zrotation Yrotation Xrotation
				JOINT RightForeArm
				{
					OFFSET -5.241900 -0.000000 -0.000000 
					CHANNELS 3 Zrotation Yrotation Xrotation
					JOINT RightHand
					{
						OFFSET -3.444170 -0.000000 -0.000000 
						CHANNELS 3 Zrotation Yrotation Xrotation
						JOINT RightHandIndex1
						{
							OFFSET -0.622530 -0.000000 -0.000000 
							CHANNELS 3 Zrotation Yrotation Xrotation
							End Site
							{
								OFFSET 0.000000 0.000000 0.000000 
							}
						}
					}
				}
			}
		}
	}
}
MOTION
Frames: 15
Frame Time: 0.041667
-1.081093 18.181403 5.553415 -2.313374 -5.744819 1.780052 -11.477964 -6.512343 10.683093 -1.949056 -5.122731 -11.045843 -6.607876 24.757971 -4.406704 0.002000 -0.291900 -0.802200 18.170316 4.512469 3.570613 1.248819 0.546916 1.775720 1.207131 -6.701999 -7.184324 -0.163100 -2.602200 7.173200 -7.178751 3.692216 17.585476 -1.072178 2.154551 -9.693049 6.807467 -6.221162 21.989305 0.466900 -1.929500 8.664300 -92.510067 5.666801 21.831639 22.459192 -31.622525 -6.034426 0.666053 0.248324 13.140170 -7.125000 0.000000 0.000000 94.243352 -11.186534 24.757925 -29.573044 37.663685 -8.214112 1.161861 -2.509499 14.642472 7.125000 0.000000 0.000000 
-1.081791 18.180804 5.547625 -2.281895 -5.695970 1.722355 -11.502112 -6.463567 10.660177 -1.949842 -5.109515 -11.008572 -6.595315 24.719486 -4.330138 0.003400 -0.378600 -1.040300 18.141753 4.456165 3.581821 1.247934 0.547792 1.777429 1.215538 -6.731896 -7.165435 -0.160900 -2.584700 7.124600 -7.193430 3.674245 17.667125 -1.061089 2.145636 -9.736434 6.769601 -6.209246 21.915404 0.459900 -1.932000 8.646700 -92.554179 5.585758 21.687054 22.386321 -31.560089 -6.016594 0.674611 0.243558 13.277178 -7.125000 0.000000 0.000000 94.261333 -11.141461 24.759450 -29.553354 37.647210 -8.191915 1.160664 -2.505956 14.725030 7.125000 0.000000 0.000000 
-1.084687 18.180504 5.542034 -2.224393 -5.605191 1.697738 -11.525090 -6.258294 10.558471 -1.943660 -5.099262 -10.982302 -6.546610 24.586027 -4.022061 0.007000 -0.541800 -1.488700 18.103349 4.362785 3.569620 1.246543 0.547123 1.780612 1.207778 -6.704680 -7.191494 -0.166500 -2.629200 7.248000 -7.303715 3.635590 17.569574 -0.996782 2.129382 -9.784233 6.791632 -6.184953 21.840357 0.468300 -1.922300 8.611000 -92.572131 5.365679 21.511186 22.084396 -31.242913 -5.884797 0.678252 0.239635 13.526056 -7.125000 0.000000 0.000000 94.297984 -11.186151 24.792401 -29.570560 37.661785 -8.193054 1.158407 -2.504850 14.792004 7.125000 0.000000 0.000000 
-1.088081 18.181303 5.537542 -2.132454 -5.516754 1.794083 -11.532600 -6.051582 10.406520 -1.930981 -5.078049 -10.964678 -6.481449 24.417275 -3.712514 0.012500 -0.720800 -1.980900 18.107702 4.258723 3.533100 1.246101 0.542291 1.782501 1.199889 -6.683882 -7.219130 -0.167500 -2.636400 7.268200 -8.026222 3.700754 16.586555 -0.958383 2.138735 -9.966375 6.977060 -6.299680 22.080784 0.488500 -1.945100 8.615000 -92.328188 5.103577 21.612403 21.232903 -30.326178 -5.526838 0.696219 0.245121 13.722013 -7.125000 0.000000 0.000000 94.566963 -11.562088 24.608731 -29.628211 37.701726 -8.225398 1.169173 -2.508672 14.888248 7.125000 0.000000 0.000000 
-1.089379 18.182900 5.534846 -2.127857 -5.456745 1.827591 -11.503413 -5.948008 10.324928 -1.924188 -5.073173 -10.963542 -6.444628 24.314808 -3.551462 0.019100 -0.892900 -2.454200 18.137252 4.196143 3.510761 1.245908 0.541213 1.783082 1.203534 -6.700069 -7.213797 -0.160100 -2.578100 7.106400 -8.241286 3.739742 16.305398 -0.963691 2.151382 -10.013997 7.015703 -6.347529 22.198657 0.493200 -1.959700 8.637100 -92.419001 3.983234 20.691675 19.203782 -28.127439 -4.760011 0.750720 0.209900 14.665853 -7.125000 0.000000 0.000000 94.647612 -11.680959 24.557006 -29.665260 37.739450 -8.257197 1.182022 -2.513204 14.916883 7.125000 0.000000 0.000000 
-1.090776 18.182801 5.533449 -2.116028 -5.422018 1.812089 -11.503426 -5.907951 10.322850 -1.921347 -5.082472 -10.987558 -6.437633 24.301596 -3.489644 0.021600 -0.949100 -2.608700 18.131618 4.160611 3.512234 1.245095 0.541567 1.784339 1.198926 -6.679360 -7.207668 -0.164900 -2.616200 7.211900 -8.273590 3.783884 16.342370 -0.976917 2.173134 -10.007960 7.009091 -6.380409 22.234860 0.491700 -1.976500 8.654100 -92.175855 3.085777 21.164707 17.818803 -26.571198 -4.280001 0.788791 0.200968 14.143661 -7.125000 0.000000 0.000000 94.700255 -11.709008 24.496112 -29.711475 37.783264 -8.280666 1.190390 -2.513136 14.963331 7.125000 0.000000 0.000000 
-1.093871 18.181802 5.532051 -2.136881 -5.386595 1.793164 -11.464327 -5.868174 10.330607 -1.917676 -5.087872 -11.006026 -6.430361 24.288314 -3.413096 0.020700 -0.928800 -2.553000 18.171143 4.113989 3.534895 1.243935 0.543007 1.786529 1.184106 -6.619953 -7.218115 -0.177600 -2.714900 7.485900 -8.304076 3.824277 16.333241 -1.005980 2.187803 -10.002888 7.077855 -6.425281 22.286326 0.506100 -1.989200 8.669600 -92.504263 3.641780 20.352610 18.639947 -27.534825 -4.602559 0.779818 0.207342 14.925230 -7.125000 0.000000 0.000000 94.792292 -11.745736 24.392022 -29.737199 37.807407 -8.283178 1.198981 -2.509873 15.032902 7.125000 0.000000 0.000000 
-1.097565 18.181103 5.530554 -2.190972 -5.356111 1.776244 -11.389828 -5.828288 10.322877 -1.913597 -5.088669 -11.013608 -6.418568 24.258071 -3.320868 0.022300 -0.963000 -2.647100 18.248185 4.070092 3.560365 1.243288 0.545142 1.788162 1.176120 -6.588791 -7.229377 -0.182300 -2.750100 7.583700 -8.279743 3.866341 16.353508 -1.062809 2.202643 -10.015315 7.220929 -6.496033 22.414683 0.540700 -2.003900 8.718800 -92.609826 3.796079 20.115083 18.938877 -27.888748 -4.728271 0.778120 0.211245 15.194828 -7.125000 0.000000 0.000000 94.837939 -11.746329 24.353294 -29.741501 37.808432 -8.275561 1.206455 -2.505907 14.970780 7.125000 0.000000 0.000000 
-1.100760 18.179606 5.529056 -2.168735 -5.322961 1.760046 -11.390563 -5.791410 10.318291 -1.910455 -5.092963 -11.024738 -6.399805 24.202805 -3.274466 0.022300 -0.963200 -2.647600 18.243091 4.028783 3.571075 1.242472 0.545389 1.789917 1.170399 -6.566801 -7.239459 -0.187000 -2.785400 7.681700 -8.331686 3.893759 16.332156 -1.064598 2.214822 -10.034950 7.351371 -6.548245 22.574942 0.574000 -2.009300 8.774300 -92.627702 3.777151 20.038942 18.952154 -27.912818 -4.744591 0.781399 0.209820 15.269096 -7.125000 0.000000 0.000000 94.857531 -11.752404 24.372197 -29.723486 37.788282 -8.256773 1.216952 -2.501571 14.851407 7.125000 0.000000 0.000000 
-1.103056 18.178608 5.528457 -2.148649 -5.287639 1.740045 -11.400735 -5.765069 10.327592 -1.908910 -5.091233 -11.020113 -6.386216 24.162862 -3.235652 0.017900 -0.862900 -2.371700 18.236443 3.983298 3.590918 1.241681 0.545077 1.791287 1.171070 -6.569789 -7.239053 -0.185300 -2.772800 7.646800 -8.357346 3.895525 16.266804 -1.051245 2.217394 -10.045815 7.418281 -6.560913 22.684516 0.591900 -2.003900 8.800700 -92.654122 3.804995 19.952043 18.968399 -27.935124 -4.759043 0.783707 0.209821 15.312938 -7.125000 0.000000 0.000000 94.892463 -11.782845 24.353312 -29.678362 37.746638 -8.230592 1.219052 -2.501624 14.851361 7.125000 0.000000 0.000000 
-1.104753 18.179306 5.527858 -2.158907 -5.263135 1.745889 -11.387447 -5.774216 10.319874 -1.909951 -5.081372 -11.000594 -6.392428 24.187279 -3.197229 0.017200 -0.847300 -2.328700 18.258987 3.955287 3.591667 1.241423 0.544695 1.790978 1.177185 -6.591744 -7.213677 -0.182400 -2.750900 7.586000 -8.354369 3.897249 16.181534 -1.049336 2.219547 -10.041453 7.396270 -6.560998 22.754507 0.583800 -2.002100 8.810800 -92.687576 3.809963 19.866652 18.960841 -27.928201 -4.762024 0.785524 0.209842 15.346951 -7.125000 0.000000 0.000000 94.927376 -11.804616 24.312234 -29.642052 37.716688 -8.218669 1.202334 -2.507541 14.896739 7.125000 0.000000 0.000000 
-1.106650 18.179905 5.526660 -2.138317 -5.234697 1.772003 -11.395313 -5.836312 10.309838 -1.911532 -5.077375 -10.997308 -6.401876 24.217242 -3.224479 0.019200 -0.894100 -2.457400 18.253550 3.931885 3.562947 1.241199 0.543842 1.790495 1.180428 -6.601021 -7.183722 -0.183400 -2.758300 7.606500 -8.448336 3.902266 16.087231 -1.028851 2.220869 -10.029243 7.324023 -6.553132 22.838688 0.558300 -1.998400 8.828800 -92.708641 3.776027 19.727043 18.915033 -27.876491 -4.749310 0.787505 0.207371 15.433053 -7.125000 0.000000 0.000000 94.957851 -11.821097 24.329748 -29.669103 37.748707 -8.241847 1.193391 -2.512615 14.833022 7.125000 0.000000 0.000000 
-1.108646 18.180005 5.526161 -2.131282 -5.194258 1.777354 -11.387175 -5.881954 10.312446 -1.910775 -5.078843 -11.004391 -6.394240 24.191916 -3.231371 0.020500 -0.924500 -2.541000 18.260846 3.891121 3.549709 1.240828 0.544143 1.790831 1.186361 -6.621014 -7.159053 -0.177500 -2.713800 7.482900 -8.516017 3.904543 16.072517 -1.030027 2.218517 -10.017528 7.336433 -6.563600 22.885006 0.558700 -1.999000 8.845000 -92.689792 3.752899 19.729295 18.898576 -27.859350 -4.744835 0.788294 0.209006 15.415029 -7.125000 0.000000 0.000000 94.979026 -11.807011 24.371043 -29.719517 37.802024 -8.272355 1.200038 -2.513253 14.729318 7.125000 0.000000 0.000000 
-1.110643 18.179806 5.525861 -2.147043 -5.165380 1.760782 -11.362682 -5.852461 10.310922 -1.908361 -5.079682 -11.007847 -6.382698 24.162714 -3.142692 0.023300 -0.985100 -2.707700 18.280990 3.858302 3.557465 1.240177 0.545204 1.791943 1.182576 -6.604381 -7.156492 -0.182100 -2.748300 7.578700 -8.491419 3.909052 16.121245 -1.048677 2.218903 -10.011796 7.352749 -6.574792 22.857752 0.564200 -2.005400 8.839900 -92.652525 3.757968 19.887142 18.917625 -27.882475 -4.752142 0.788433 0.214165 15.261735 -7.125000 0.000000 0.000000 94.989565 -11.756992 24.364560 -29.730758 37.812140 -8.269022 1.221965 -2.506912 14.772658 7.125000 0.000000 0.000000 
-1.112540 18.179606 5.524863 -2.158591 -5.148205 1.751456 -11.344564 -5.823993 10.309735 -1.905887 -5.086571 -11.025081 -6.374015 24.141732 -3.078130 0.022800 -0.975700 -2.682000 18.296730 3.840939 3.555927 1.240137 0.545752 1.793017 1.176884 -6.586895 -7.191980 -0.184500 -2.766400 7.629100 -8.444298 3.910532 16.164168 -1.059746 2.220031 -10.003986 7.296034 -6.557967 22.828861 0.552400 -2.005700 8.829900 -92.655443 3.731168 19.936861 18.887161 -27.848140 -4.738536 0.788375 0.214412 15.223543 -7.125000 0.000000 0.000000 94.985234 -11.722795 24.341477 -29.743508 37.813731 -8.256450 1.249885 -2.495684 14.849207 7.125000 0.000000 0.000000 
